<svg width="28" height="28" viewBox="0 0 28 28" fill="none" xmlns="http://www.w3.org/2000/svg">
<path d="M26.3202 19.0165L17.3718 4.17647C17.01 3.61042 16.5115 3.14458 15.9222 2.8219C15.333 2.49922 14.672 2.33008 14.0002 2.33008C13.3283 2.33008 12.6673 2.49922 12.0781 2.8219C11.4888 3.14458 10.9903 3.61042 10.6285 4.17647L1.68016 19.0165C1.36405 19.5434 1.19224 20.1443 1.182 20.7587C1.17176 21.373 1.32345 21.9793 1.62182 22.5165C1.96678 23.1211 2.46609 23.6233 3.06873 23.9718C3.67136 24.3203 4.3557 24.5025 5.05182 24.4998H22.9485C23.64 24.5072 24.3213 24.332 24.9235 23.992C25.5257 23.652 26.0276 23.1591 26.3785 22.5631C26.6856 22.0204 26.8422 21.4054 26.8319 20.7819C26.8216 20.1583 26.645 19.5488 26.3202 19.0165ZM24.3368 21.4081C24.1966 21.6492 23.9931 21.8472 23.7484 21.9809C23.5037 22.1146 23.2271 22.1787 22.9485 22.1665H5.05182C4.77325 22.1787 4.49663 22.1146 4.25191 21.9809C4.00719 21.8472 3.80371 21.6492 3.66349 21.4081C3.56109 21.2308 3.50719 21.0296 3.50719 20.8248C3.50719 20.62 3.56109 20.4188 3.66349 20.2415L12.6235 5.38981C12.7845 5.17713 12.9926 5.00465 13.2314 4.88589C13.4703 4.76713 13.7334 4.70533 14.0002 4.70533C14.2669 4.70533 14.53 4.76713 14.7689 4.88589C15.0077 5.00465 15.2158 5.17713 15.3768 5.38981L24.3252 20.2298C24.4315 20.4075 24.4886 20.6103 24.4907 20.8174C24.4927 21.0245 24.4396 21.2284 24.3368 21.4081Z" fill="#6C5700"/>
<path d="M14 19.8333C14.6444 19.8333 15.1667 19.311 15.1667 18.6667C15.1667 18.0223 14.6444 17.5 14 17.5C13.3557 17.5 12.8334 18.0223 12.8334 18.6667C12.8334 19.311 13.3557 19.8333 14 19.8333Z" fill="#6C5700"/>
<path d="M14 9.3335C13.6906 9.3335 13.3939 9.45641 13.1751 9.67521C12.9563 9.894 12.8334 10.1907 12.8334 10.5002V15.1668C12.8334 15.4762 12.9563 15.773 13.1751 15.9918C13.3939 16.2106 13.6906 16.3335 14 16.3335C14.3095 16.3335 14.6062 16.2106 14.825 15.9918C15.0438 15.773 15.1667 15.4762 15.1667 15.1668V10.5002C15.1667 10.1907 15.0438 9.894 14.825 9.67521C14.6062 9.45641 14.3095 9.3335 14 9.3335Z" fill="#6C5700"/>
</svg>
